<svg width="800" height="784" viewBox="0 0 800 784" fill="none" xmlns="http://www.w3.org/2000/svg">
<g filter="url(#filter0_d_242_2)">
<path fill-rule="evenodd" clip-rule="evenodd" d="M98.2069 323.399C61.9673 323.399 43.8192 367.215 69.4454 392.839L203.729 527.113C222.483 545.865 247.917 556.399 274.437 556.399H345.13C371.65 556.399 397.084 566.934 415.838 585.686L576.877 746.713C595.631 765.465 621.065 776 647.585 776H1036.44C1108.97 776 1145.3 688.302 1094 637.015L1007.61 550.63C988.202 531.22 1001.95 498.03 1029.4 498.03C1056.85 498.03 1070.6 464.841 1051.19 445.431L855.851 250.111C837.097 231.359 811.663 220.824 785.143 220.824H550.701C524.18 220.824 498.746 210.289 479.993 191.537L444.74 156.287C425.986 137.535 400.527 127 374.007 127C284.955 127 216.379 127 138.895 127C87.6461 127 61.9673 188.963 98.2069 225.199L126.968 253.959C152.595 279.583 134.447 323.399 98.2069 323.399Z" fill="#2D314D"/>
<path fill-rule="evenodd" clip-rule="evenodd" d="M236.207 16.399C199.967 16.399 181.819 60.2148 207.445 85.8391L341.729 220.113C360.483 238.865 385.917 249.399 412.437 249.399H483.13C509.65 249.399 535.084 259.934 553.838 278.686L714.877 439.713C733.631 458.465 759.065 469 785.585 469H1174.44C1246.97 469 1283.3 381.302 1232 330.015L1145.61 243.63C1126.2 224.22 1139.95 191.03 1167.4 191.03C1194.85 191.03 1208.6 157.841 1189.19 138.431L993.851 -56.8895C975.097 -75.6415 949.663 -86.1761 923.143 -86.1761H688.701C662.18 -86.1761 636.746 -96.7108 617.993 -115.463L582.74 -150.713C563.986 -169.465 538.552 -180 512.032 -180H276.88C225.632 -180 199.967 -118.037 236.207 -81.8005L264.968 -53.0412C290.595 -27.4169 272.447 16.399 236.207 16.399Z" fill="url(#paint0_linear_242_2)"/>
</g>
<defs>
<filter id="filter0_d_242_2" x="53.449" y="-180" width="1206.57" height="964" filterUnits="userSpaceOnUse" color-interpolation-filters="sRGB">
<feFlood flood-opacity="0" result="BackgroundImageFix"/>
<feColorMatrix in="SourceAlpha" type="matrix" values="0 0 0 0 0 0 0 0 0 0 0 0 0 0 0 0 0 0 127 0" result="hardAlpha"/>
<feOffset dy="4"/>
<feGaussianBlur stdDeviation="2"/>
<feComposite in2="hardAlpha" operator="out"/>
<feColorMatrix type="matrix" values="0 0 0 0 0 0 0 0 0 0 0 0 0 0 0 0 0 0 0.25 0"/>
<feBlend mode="normal" in2="BackgroundImageFix" result="effect1_dropShadow_242_2"/>
<feBlend mode="normal" in="SourceGraphic" in2="effect1_dropShadow_242_2" result="shape"/>
</filter>
<linearGradient id="paint0_linear_242_2" x1="-475.913" y1="143.138" x2="56.8341" y2="1155.28" gradientUnits="userSpaceOnUse">
<stop stop-color="#33D35E"/>
<stop offset="1" stop-color="#2AB6D9"/>
</linearGradient>
</defs>
</svg>
